<svg width="30" height="30" viewBox="0 0 30 30" fill="none" xmlns="http://www.w3.org/2000/svg">
<g clip-path="url(#clip0_4_63)">
<path d="M22.2936 11.4909L16.2386 2.40831C15.9633 2.13308 15.5505 1.85785 15.1377 1.85785C14.7248 1.85785 14.312 1.99546 14.0368 2.40831L7.98171 11.4909H1.37621C0.55052 11.4909 6.10352e-05 12.0413 6.10352e-05 12.867C6.10352e-05 13.0046 6.10352e-05 13.1423 6.10352e-05 13.2799L3.44043 26.078C3.71566 27.179 4.81657 28.1423 6.05511 28.1423H23.945C25.1835 28.1423 26.2845 27.3166 26.5597 26.078L30.0001 13.2799C30.0001 13.1423 30.0001 13.0046 30.0001 12.867C30.0001 12.0413 29.4496 11.4909 28.6239 11.4909H22.2936ZM11.0092 11.4909L15.1377 5.43583L19.2661 11.4909H11.0092ZM15.1377 22.5001C13.6239 22.5001 12.3854 21.2615 12.3854 19.7478C12.3854 18.234 13.6239 16.9955 15.1377 16.9955C16.6514 16.9955 17.89 18.234 17.89 19.7478C17.89 21.2615 16.6514 22.5001 15.1377 22.5001Z" fill="#212121"/>
</g>
<defs>
<clipPath id="clip0_4_63">
<rect width="30" height="30" fill="white"/>
</clipPath>
</defs>
</svg>
